<svg width="25" height="24" viewBox="0 0 25 24" fill="none" xmlns="http://www.w3.org/2000/svg">
<path d="M23.375 14.9992C23.375 15.2976 23.2565 15.5838 23.0455 15.7947C22.8345 16.0057 22.5484 16.1242 22.25 16.1242H19.3128L20.9684 18.9264C21.0457 19.0537 21.0969 19.195 21.1191 19.3422C21.1414 19.4894 21.1342 19.6395 21.098 19.7839C21.0618 19.9283 20.9973 20.064 20.9082 20.1833C20.8191 20.3026 20.7073 20.403 20.5791 20.4787C20.451 20.5545 20.3091 20.604 20.1617 20.6245C20.0142 20.645 19.8642 20.636 19.7202 20.5981C19.5763 20.5602 19.4413 20.4941 19.3231 20.4036C19.2049 20.3132 19.1058 20.2002 19.0316 20.0711L13.7094 11.0617C13.5661 10.8053 13.5287 10.503 13.6053 10.2195C13.6819 9.93588 13.8664 9.69351 14.1194 9.54415C14.3723 9.39479 14.6736 9.35028 14.9589 9.42014C15.2442 9.49 15.4909 9.66868 15.6462 9.918L17.9825 13.8742H22.25C22.5484 13.8742 22.8345 13.9928 23.0455 14.2038C23.2565 14.4147 23.375 14.7009 23.375 14.9992ZM12.9828 13.8742H9.63031L15.7184 3.57206C15.7957 3.44482 15.8469 3.30351 15.8691 3.15632C15.8914 3.00914 15.8842 2.859 15.848 2.71462C15.8118 2.57024 15.7473 2.43447 15.6582 2.3152C15.5691 2.19593 15.4573 2.09551 15.3291 2.01978C15.201 1.94404 15.0591 1.89449 14.9117 1.874C14.7642 1.8535 14.6142 1.86247 14.4702 1.90038C14.3263 1.93829 14.1913 2.00439 14.0731 2.09486C13.9549 2.18532 13.8558 2.29834 13.7816 2.42737L12.5 4.593L11.2184 2.42737C11.1442 2.29834 11.0451 2.18532 10.9269 2.09486C10.8087 2.00439 10.6737 1.93829 10.5298 1.90038C10.3858 1.86247 10.2358 1.8535 10.0883 1.874C9.94091 1.89449 9.79901 1.94404 9.67086 2.01978C9.54271 2.09551 9.43087 2.19593 9.34181 2.3152C9.25275 2.43447 9.18824 2.57024 9.15203 2.71462C9.11582 2.859 9.10863 3.00914 9.13086 3.15632C9.1531 3.30351 9.20432 3.44482 9.28156 3.57206L11.1931 6.80737L7.0175 13.8742H2.75C2.45163 13.8742 2.16548 13.9928 1.9545 14.2038C1.74353 14.4147 1.625 14.7009 1.625 14.9992C1.625 15.2976 1.74353 15.5838 1.9545 15.7947C2.16548 16.0057 2.45163 16.1242 2.75 16.1242H12.9828C13.2812 16.1242 13.5673 16.0057 13.7783 15.7947C13.9893 15.5838 14.1078 15.2976 14.1078 14.9992C14.1078 14.7009 13.9893 14.4147 13.7783 14.2038C13.5673 13.9928 13.2812 13.8742 12.9828 13.8742ZM6.01531 17.7808C5.75856 17.6291 5.4521 17.5856 5.16327 17.6598C4.87444 17.734 4.62689 17.9198 4.475 18.1764L4.03156 18.9264C3.95432 19.0537 3.9031 19.195 3.88086 19.3422C3.85863 19.4894 3.86582 19.6395 3.90203 19.7839C3.93824 19.9283 4.00275 20.064 4.09181 20.1833C4.18087 20.3026 4.29271 20.403 4.42086 20.4787C4.54901 20.5545 4.69091 20.604 4.83835 20.6245C4.98578 20.645 5.13582 20.636 5.27977 20.5981C5.42372 20.5602 5.55871 20.4941 5.67692 20.4036C5.79513 20.3132 5.89422 20.2002 5.96844 20.0711L6.41188 19.3211C6.56346 19.0643 6.60684 18.7577 6.53248 18.4689C6.45811 18.18 6.27209 17.9325 6.01531 17.7808Z" fill="#182C75"/>
</svg>
