<svg width="36" height="37" viewBox="0 0 36 37" fill="none" xmlns="http://www.w3.org/2000/svg">
<path d="M18.0041 9.76103C12.8933 9.76103 8.77102 13.8834 8.77102 18.9941C8.77102 24.1048 12.8933 28.2271 18.0041 28.2271C23.1148 28.2271 27.2371 24.1048 27.2371 18.9941C27.2371 13.8834 23.1148 9.76103 18.0041 9.76103ZM18.0041 24.9967C14.7014 24.9967 12.0014 22.3048 12.0014 18.9941C12.0014 15.6834 14.6933 12.9914 18.0041 12.9914C21.3148 12.9914 24.0067 15.6834 24.0067 18.9941C24.0067 22.3048 21.3067 24.9967 18.0041 24.9967ZM29.7683 9.38335C29.7683 10.5807 28.8041 11.5369 27.6148 11.5369C26.4174 11.5369 25.4612 10.5726 25.4612 9.38335C25.4612 8.19406 26.4255 7.22978 27.6148 7.22978C28.8041 7.22978 29.7683 8.19406 29.7683 9.38335ZM35.8835 11.5691C35.7469 8.68424 35.088 6.12889 32.9746 4.02353C30.8692 1.91817 28.3139 1.25924 25.4291 1.1146C22.4558 0.94585 13.5442 0.94585 10.571 1.1146C7.69423 1.25121 5.13887 1.91014 3.02548 4.01549C0.912089 6.12085 0.261196 8.67621 0.116553 11.561C-0.0521973 14.5342 -0.0521973 23.4459 0.116553 26.4191C0.25316 29.3039 0.912089 31.8592 3.02548 33.9646C5.13887 36.07 7.6862 36.7289 10.571 36.8735C13.5442 37.0423 22.4558 37.0423 25.4291 36.8735C28.3139 36.7369 30.8692 36.078 32.9746 33.9646C35.0799 31.8592 35.7389 29.3039 35.8835 26.4191C36.0523 23.4459 36.0523 14.5423 35.8835 11.5691ZM32.0424 29.6092C31.4157 31.1842 30.2023 32.3976 28.6192 33.0325C26.2487 33.9726 20.6237 33.7557 18.0041 33.7557C15.3844 33.7557 9.75137 33.9646 7.38887 33.0325C5.81387 32.4057 4.60048 31.1923 3.96566 29.6092C3.02548 27.2387 3.24245 21.6137 3.24245 18.9941C3.24245 16.3744 3.03352 10.7414 3.96566 8.37889C4.59245 6.80389 5.80584 5.59049 7.38887 4.95567C9.75941 4.01549 15.3844 4.23246 18.0041 4.23246C20.6237 4.23246 26.2567 4.02353 28.6192 4.95567C30.1942 5.58246 31.4076 6.79585 32.0424 8.37889C32.9826 10.7494 32.7657 16.3744 32.7657 18.9941C32.7657 21.6137 32.9826 27.2467 32.0424 29.6092Z" fill="#64748B"/>
</svg>
